<svg height="32" viewBox="0 0 32 32" width="32" xmlns="http://www.w3.org/2000/svg"><path d="m16.177734 3a.50005.50005 0 0 0 -.005859.0019531.50005.50005 0 0 0 -.009766 0 .50005.50005 0 0 0 -.169921.0429688l-11.5585942 4.9433593a.50005.50005 0 0 0 -.421875.5v15.0019528a.50005.50005 0 0 0 .0429687.207032.50005.50005 0 0 0 .0019531.005859.50005.50005 0 0 0 .0136719.027344.50005.50005 0 0 0 .2558594.238281l11.5664061 4.945312a.50005.50005 0 0 0 .341797.091797.50005.50005 0 0 0 .246094-.080078l11.59375-4.957031a.50005.50005 0 0 0 .30664-.394531.50005.50005 0 0 0 .003907-.027344.50005.50005 0 0 0 .001953-.023437.50005.50005 0 0 0 0-.025391.50005.50005 0 0 0 0-.007813v-15.0019528a.50005.50005 0 0 0 -.414063-.4980468l-11.566406-4.9453125a.50005.50005 0 0 0 -.03125-.0136719.50005.50005 0 0 0 -.003906-.0019531.50005.50005 0 0 0 -.044922-.0117188.50005.50005 0 0 0 -.015625-.0039062.50005.50005 0 0 0 -.033203-.0078125.50005.50005 0 0 0 -.015625-.0019532.50005.50005 0 0 0 -.033203-.0019531.50005.50005 0 0 0 -.050782-.0019531zm.021485 1.0449219 2.451172 1.046875-10.3886722 4.4433593a.50009756.50009756 0 0 0 -.0292969.0136719l-2.453125-1.0488281zm3.722656 1.5917969 2.974609 1.2714843-10.582031 4.5253909a.50009296.50009296 0 0 0 -.300781.509765.50005.50005 0 0 0 -.001953.058594v5.349609l-1.083985-1.626953a.50005.50005 0 0 0 -.638672-.169921l-1.2773432.638671v-5.890625zm4.246094 1.8144531 2.453125 1.0488281-10.421875 4.455078-2.451172-1.046875 10.390625-4.4433592a.50005.50005 0 0 0 .029297-.0136719zm-19.1562502 1.8066406 3 1.2832035v6.460937a.50005.50005 0 0 0 .7246093.447266l1.6035159-.802735 1.728515 2.591797a.50005.50005 0 0 0 .25586.232422.50005.50005 0 0 0 .044922.015625.50005.50005 0 0 0 .001953.001953.50005.50005 0 0 0 .097656.017578.50005.50005 0 0 0 .050781.001953.50005.50005 0 0 0 .048828-.001953.50005.50005 0 0 0 .050782-.009765.50005.50005 0 0 0 .029297-.007813.50005.50005 0 0 0 .017578-.003906.50005.50005 0 0 0 .345703-.541016v-6.261718l2.6875 1.148437v13.914063l-10.6875002-4.570313zm22.3750002.0019531v13.9140624l-10.6875 4.572266v-13.916016zm-6.275391 11.4921874a.50005.50005 0 0 0 -.005859.001953.50005.50005 0 0 0 -.179688.042969l-2.916015 1.246094a.50009099.50009099 0 0 0 .392578.919922l2.917968-1.246094a.50005.50005 0 0 0 -.208984-.964844zm2.910156.75a.50005.50005 0 0 0 -.177734.042969l-2.917969 1.246094-2.916015 1.248046a.50009099.50009099 0 0 0 .392578.919922l2.917968-1.248046 2.916016-1.248047a.50005.50005 0 0 0 -.214844-.960938z" fill-rule="evenodd"/></svg>