<svg viewBox="0 0 64 64" xmlns="http://www.w3.org/2000/svg"><g fill="#222"><path d="m53.42 53.32h-42.84a8.51 8.51 0 0 1 -8.5-8.5v-25.64a8.51 8.51 0 0 1 8.5-8.5h42.84a8.51 8.51 0 0 1 8.5 8.5v25.64a8.51 8.51 0 0 1 -8.5 8.5zm-42.84-39.64a5.5 5.5 0 0 0 -5.5 5.5v25.64a5.5 5.5 0 0 0 5.5 5.5h42.84a5.5 5.5 0 0 0 5.5-5.5v-25.64a5.5 5.5 0 0 0 -5.5-5.5z"/><path d="m32 38.08a8.51 8.51 0 0 1 -5.13-1.71l-23.35-17.66a1.5 1.5 0 1 1 1.81-2.39l23.35 17.68a5.55 5.55 0 0 0 6.64 0l23.35-17.68a1.5 1.5 0 1 1 1.81 2.39l-23.35 17.66a8.51 8.51 0 0 1 -5.13 1.71z"/><path d="m4.17 49.14a1.5 1.5 0 0 1 -1-2.62l18.4-16.41a1.5 1.5 0 0 1 2 2.24l-18.4 16.41a1.46 1.46 0 0 1 -1 .38zm55.66 0a1.46 1.46 0 0 1 -1-.38l-18.4-16.41a1.5 1.5 0 1 1 2-2.24l18.39 16.41a1.5 1.5 0 0 1 -1 2.62z"/></g></svg>