<svg height="16" viewBox="0 0 16 16" width="16" xmlns="http://www.w3.org/2000/svg"><path d="m7.9921875 2c-2.4793586 0-4.5000027 2.0207-4.5 4.5a.50004997.50004997 0 0 0 .0234375.15625c.0415362 1.5798342.7257056 2.9606056 1.53125 4.242188.8310122 1.3221 1.7941346 2.562824 2.4121094 3.828124a.50005.50005 0 0 0 .8945312.009766c.6488495-1.2643 1.6614044-2.505925 2.5351564-3.828125.873751-1.3220999 1.61914-2.7499905 1.61914-4.4003905a.50005.50005 0 0 0 -.033203-.1855469c-.095704-2.3956901-2.06383-4.3222656-4.4824215-4.3222656zm0 1c1.9389181 0 3.5000025 1.5611 3.5000005 3.5a.50004997.50004997 0 0 0 .009765.1074219c-.029899 1.3077973-.635522 2.5186537-1.449219 3.7500001-.6878023 1.0407-1.4635764 2.115722-2.1347652 3.232422-.6371223-1.112-1.3711381-2.184856-2.0234376-3.222656-.7938675-1.2630005-1.3867187-2.5055755-1.3867187-3.8593755a.50005.50005 0 0 0 -.0078125-.09375c.0464063-1.8979015 1.5827033-3.4140625 3.4921875-3.4140625zm0 2.0039062c-.8225048 0-1.5.6775001-1.5 1.5 0 .8225.6774952 1.5 1.5 1.5s1.5-.6775 1.5-1.5c0-.8224999-.6774952-1.5-1.5-1.5zm0 1c.2820647 0 .5.2180001.5.5 0 .2821-.2179353.5-.5.5s-.5-.2179-.5-.5c0-.2819999.2179353-.5.5-.5z"/></svg>