<svg viewBox="0 0 35 35" xmlns="http://www.w3.org/2000/svg"><path d="m27.44 32.75h-19.87a5.32 5.32 0 0 1 -5.32-5.32v-19.87a5.32 5.32 0 0 1 5.32-5.31h19.87a5.31 5.31 0 0 1 5.31 5.31v19.87a5.32 5.32 0 0 1 -5.31 5.32zm-19.87-28a2.81 2.81 0 0 0 -2.82 2.81v19.87a2.82 2.82 0 0 0 2.82 2.82h19.87a2.81 2.81 0 0 0 2.81-2.82v-19.87a2.81 2.81 0 0 0 -2.81-2.81z"/><path d="m13.52 18.75a2.42 2.42 0 0 1 -1-.22 2.49 2.49 0 0 1 -1.46-2.29v-12.74a1.25 1.25 0 0 1 2.5 0v12.74l2.35-2.08a2.41 2.41 0 0 1 3.21 0l2.41 2.09-.08-12.75a1.25 1.25 0 0 1 2.5 0v12.74a2.49 2.49 0 0 1 -1.46 2.29 2.41 2.41 0 0 1 -2.61-.39l-2.38-2.06-2.38 2.07a2.41 2.41 0 0 1 -1.6.6zm5.48 7.82h-9a1.25 1.25 0 1 1 0-2.5h9a1.25 1.25 0 0 1 0 2.5z"/></svg>