<svg xmlns="http://www.w3.org/2000/svg" viewBox="0 0 1024 1024"><path d="M537.2 918.7c-14.1-7.4-28.2-14.9-42.3-22.3-33.9-17.9-67.7-35.8-101.6-53.7-41.1-21.7-82.3-43.4-123.4-65.2-35.4-18.7-70.9-37.4-106.3-56.1-17.2-9.1-34.3-18.5-51.7-27.3-.2-.1-.5-.3-.7-.4 8.3 14.4 16.5 28.8 24.8 43.2V342.5c0-18.2.3-36.4 0-54.6v-.7c-25.1 14.4-50.2 28.8-75.2 43.2 14.1 7.5 28.2 14.9 42.3 22.4 33.9 17.9 67.7 35.8 101.6 53.7 41.1 21.7 82.3 43.5 123.4 65.2 35.4 18.7 70.9 37.5 106.3 56.2 17.2 9.1 34.3 18.5 51.7 27.3.2.1.5.3.7.4-8.3-14.4-16.5-28.8-24.8-43.2v394c0 18.2-.2 36.4 0 54.6v.7c0 12.8 5.6 26.3 14.6 35.4 8.7 8.7 22.9 15.2 35.4 14.6 12.9-.6 26.3-4.8 35.4-14.6 9-9.8 14.6-21.8 14.6-35.4v-394c0-18.2.2-36.4 0-54.6v-.7c0-17-9.4-35-24.8-43.2-14.1-7.5-28.2-14.9-42.3-22.4-33.9-17.9-67.7-35.8-101.6-53.7-41.1-21.7-82.3-43.5-123.4-65.2-35.4-18.7-70.9-37.5-106.3-56.2-17.2-9.1-34.4-18.4-51.7-27.3-.2-.1-.5-.3-.7-.4-16-8.5-34.5-9.3-50.5 0-15.2 8.9-24.8 25.5-24.8 43.2v394.4c0 18.2-.2 36.4 0 54.6v.7c0 17 9.4 35.1 24.8 43.2 14.1 7.4 28.2 14.9 42.3 22.3 33.9 17.9 67.7 35.8 101.6 53.7 41.1 21.7 82.3 43.4 123.4 65.2 35.4 18.7 70.9 37.4 106.3 56.1 17.2 9.1 34.4 18.4 51.7 27.3.2.1.5.3.7.4 11.8 6.2 25.5 8.6 38.5 5 11.6-3.2 24.2-12.2 29.9-23 6.1-11.6 9.2-25.7 5-38.5-3.8-12.1-11.3-23.8-22.9-29.9z"/><path d="M912.9 693.7c-14.1 7.4-28.2 14.9-42.3 22.3-33.9 17.9-67.7 35.8-101.6 53.7-41.1 21.7-82.3 43.4-123.4 65.2-35.4 18.7-70.9 37.4-106.3 56.1-17.2 9.1-34.6 17.9-51.7 27.3-.2.1-.5.3-.7.4 25.1 14.4 50.2 28.8 75.2 43.2v-394c0-18.2.3-36.4 0-54.6v-.7c-8.3 14.4-16.5 28.8-24.8 43.2 14.1-7.5 28.2-14.9 42.3-22.4 33.9-17.9 67.7-35.8 101.6-53.7 41.1-21.7 82.3-43.5 123.4-65.2 35.4-18.7 70.9-37.5 106.3-56.2 17.2-9.1 34.6-18 51.7-27.3.2-.1.5-.3.7-.4-25.1-14.4-50.2-28.8-75.2-43.2v394.4c0 18.2-.2 36.4 0 54.6v.7c0 12.8 5.6 26.3 14.6 35.4 8.7 8.7 22.9 15.2 35.4 14.6 12.9-.6 26.3-4.8 35.4-14.6 9-9.8 14.6-21.8 14.6-35.4V342.7c0-18.2.2-36.4 0-54.6v-.7c0-17.6-9.6-34.3-24.8-43.2-15.9-9.3-34.5-8.5-50.5 0-14.1 7.5-28.2 14.9-42.3 22.4-33.9 17.9-67.7 35.8-101.6 53.7-41.1 21.7-82.3 43.5-123.4 65.2-35.4 18.7-70.9 37.5-106.3 56.2-17.2 9.1-34.7 17.9-51.7 27.3-.2.1-.5.3-.7.4-15.4 8.1-24.8 26.1-24.8 43.2v394c0 18.2-.2 36.4 0 54.6v.7c0 17.6 9.6 34.3 24.8 43.2 15.9 9.3 34.5 8.4 50.5 0 14.1-7.4 28.2-14.9 42.3-22.3 33.9-17.9 67.7-35.8 101.6-53.7 41.1-21.7 82.3-43.4 123.4-65.2 35.4-18.7 70.9-37.4 106.3-56.1 17.2-9.1 34.7-17.9 51.7-27.3.2-.1.5-.3.7-.4 10.8-5.7 19.8-18.3 23-29.9 3.3-12 1.8-27.9-5-38.5-15.2-23.6-43.6-31.1-68.4-18z"/><path d="M912.9 244.1c-14.1 7.5-28.2 14.9-42.3 22.4-33.9 17.9-67.7 35.8-101.6 53.7-41.1 21.7-82.3 43.5-123.4 65.2-35.4 18.7-70.9 37.5-106.3 56.2-17.2 9.1-34.6 18-51.7 27.3-.2.1-.5.3-.7.4h50.5c-14.1-7.5-28.2-14.9-42.3-22.4-33.9-17.9-67.7-35.8-101.6-53.7-41.1-21.7-82.3-43.5-123.4-65.2-35.4-18.7-70.9-37.5-106.3-56.2-17.2-9.1-34.3-18.5-51.7-27.3-.2-.1-.5-.3-.7-.4v86.3c14.1-7.4 28.2-14.9 42.3-22.3 33.9-17.9 67.7-35.8 101.6-53.7 41.1-21.7 82.3-43.5 123.4-65.2 35.4-18.7 70.9-37.4 106.3-56.2 17.2-9.1 34.6-18 51.7-27.3.2-.1.5-.3.7-.4h-50.5c14.1 7.4 28.2 14.9 42.3 22.3 33.9 17.9 67.7 35.8 101.6 53.7 41.1 21.7 82.3 43.5 123.4 65.2 35.4 18.7 70.9 37.4 106.3 56.2 17.2 9.1 34.4 18.4 51.7 27.3.2.1.5.3.7.4 11.8 6.2 25.5 8.6 38.5 5 11.6-3.2 24.2-12.2 29.9-23 6.1-11.6 9.2-25.7 5-38.5-3.9-12.1-11.4-23.8-23-29.9-14.3-7.5-28.6-15.1-42.9-22.6-34-17.9-67.9-35.9-101.9-53.8l-123.9-65.4c-35.3-18.7-70.6-37.3-105.9-56-17-9-33.9-18.3-51-26.9-10.4-5.3-20.7-7.8-32.4-6.2-6.9.9-12.9 3-19.2 6.3-1.9 1-3.7 2-5.6 2.9-8.8 4.6-17.6 9.3-26.4 13.9-32.1 17-64.3 34-96.4 50.9-40.9 21.6-81.9 43.3-122.8 64.9-37 19.5-73.9 39.1-110.9 58.6-20.2 10.7-40.4 21.4-60.6 32-.9.5-1.9 1-2.8 1.5-32.6 17.2-32.6 69.1 0 86.3 14.3 7.6 28.6 15.1 42.9 22.7 34 18 67.9 35.9 101.9 53.9 41.3 21.8 82.6 43.7 123.9 65.5 35.3 18.7 70.6 37.3 105.9 56 17 9 33.9 18.3 51 27 10.4 5.3 20.7 7.8 32.4 6.2 6.9-.9 12.9-3 19.2-6.3 1.9-1 3.7-2 5.6-2.9 8.8-4.6 17.6-9.3 26.4-13.9 32.1-17 64.3-34 96.4-51 40.9-21.6 81.9-43.3 122.8-64.9 37-19.5 73.9-39.1 110.9-58.6l60.6-32.1c.9-.5 1.9-1 2.8-1.5 10.8-5.7 19.8-18.3 23-29.9 3.3-12 1.8-27.9-5-38.5-15.2-23.6-43.6-31.1-68.4-18z"/><path d="M324.2 443.2c14.1-7.5 28.2-14.9 42.3-22.4 33.9-17.9 67.7-35.8 101.6-53.7 41.1-21.7 82.3-43.5 123.4-65.2 35.4-18.7 70.9-37.5 106.3-56.2 17.2-9.1 34.7-17.9 51.7-27.3.2-.1.5-.3.7-.4 10.8-5.7 19.8-18.3 23-29.9 3.3-12 1.8-27.9-5-38.5-15.2-23.6-43.6-31-68.4-17.9-14.1 7.5-28.2 14.9-42.3 22.4-33.9 17.9-67.7 35.8-101.6 53.7-41.1 21.7-82.3 43.5-123.4 65.2-35.4 18.7-70.9 37.5-106.3 56.2-17.2 9.1-34.7 17.9-51.7 27.3-.2.1-.5.3-.7.4-10.8 5.7-19.8 18.3-23 29.9-3.3 12-1.8 27.9 5 38.5 15.1 23.5 43.6 31 68.4 17.9z"/></svg>