<svg viewBox="0 0 64 64" xmlns="http://www.w3.org/2000/svg"><g fill="#222"><path d="m32 33.86a2 2 0 0 1 -2-2 6.7 6.7 0 0 1 1.59-4.42l.61-.57c1.24-1.12 3.8-3.44 3.8-6a3.75 3.75 0 0 0 -4-4 3.75 3.75 0 0 0 -4 4 2 2 0 1 1 -4 0 7.74 7.74 0 0 1 8-8 7.74 7.74 0 0 1 8 8c0 4.35-3.45 7.47-5.11 9l-.48.44a3.16 3.16 0 0 0 -.41 1.6 2 2 0 0 1 -2 1.95zm0 6.01a2 2 0 0 1 -1.42-.59 2.6 2.6 0 0 1 -.25-.31 1.83 1.83 0 0 1 -.18-.34 1.58 1.58 0 0 1 -.11-.37 1.72 1.72 0 0 1 0-.39 2 2 0 0 1 .58-1.42l.31-.25a2.21 2.21 0 0 1 .34-.18 2.4 2.4 0 0 1 .38-.12 2 2 0 0 1 1.8.55 2 2 0 0 1 0 2.83 2 2 0 0 1 -1.45.59z"/><path d="m26.45 47.14a55.84 55.84 0 0 1 -11.45-1.14 2 2 0 1 1 .8-3.91 53.58 53.58 0 0 0 12.63 1.06h1.09 13.3a14 14 0 0 0 14-14v-5.52a13.94 13.94 0 0 0 -.49-3.63 2 2 0 1 1 3.86-1 18 18 0 0 1 .62 4.68v5.46a18 18 0 0 1 -18 18h-13.3-1c-.57-.02-1.26 0-2.06 0z"/><path d="m7.43 48.46a2 2 0 0 1 -1.92-1.46 76.83 76.83 0 0 1 -2.31-13.12 66.93 66.93 0 0 1 0-10.33 18 18 0 0 1 18-17.92h21.61a18 18 0 0 1 13.44 6 2 2 0 0 1 -3 2.66 14 14 0 0 0 -10.46-4.7h-21.6a14 14 0 0 0 -14 14 1.09 1.09 0 0 1 0 .18 65.19 65.19 0 0 0 0 9.71 73.78 73.78 0 0 0 2.18 12.4 2 2 0 0 1 -1.93 2.54z"/><path d="m12.42 58.37h-.21a2 2 0 0 1 -1.78-2.2 53.8 53.8 0 0 1 3.12-12.92 2 2 0 1 1 3.68 1.55 50.64 50.64 0 0 0 -2.82 11.8 2 2 0 0 1 -1.99 1.77z"/></g></svg>